<mxfile host="app.diagrams.net" agent="Mozilla/5.0 (Windows NT 10.0; Win64; x64) AppleWebKit/537.36 (KHTML, like Gecko) Chrome/129.0.0.0 Safari/537.36" version="24.8.0">
  <diagram name="Sayfa -1" id="d_vw_4rTWSpH50QPB_qt">
    <mxGraphModel dx="2605" dy="1548" grid="1" gridSize="10" guides="1" tooltips="1" connect="1" arrows="1" fold="1" page="0" pageScale="1" pageWidth="827" pageHeight="1169" math="0" shadow="0">
      <root>
        <mxCell id="0" />
        <mxCell id="1" parent="0" />
        <mxCell id="o-1FiU2Sk1T6LIwUC7L5-1" value="" style="verticalLabelPosition=bottom;aspect=fixed;html=1;shape=mxgraph.salesforce.web;" parent="1" vertex="1">
          <mxGeometry x="-100" y="250" width="60" height="47.400000000000006" as="geometry" />
        </mxCell>
        <mxCell id="o-1FiU2Sk1T6LIwUC7L5-2" value="" style="endArrow=classic;html=1;rounded=0;exitX=1.05;exitY=0.57;exitDx=0;exitDy=0;exitPerimeter=0;" parent="1" source="o-1FiU2Sk1T6LIwUC7L5-1" target="o-1FiU2Sk1T6LIwUC7L5-3" edge="1">
          <mxGeometry width="50" height="50" relative="1" as="geometry">
            <mxPoint x="90" y="280" as="sourcePoint" />
            <mxPoint x="160" y="280" as="targetPoint" />
          </mxGeometry>
        </mxCell>
        <mxCell id="o-1FiU2Sk1T6LIwUC7L5-3" value="" style="image;aspect=fixed;html=1;points=[];align=center;fontSize=12;image=img/lib/azure2/compute/Azure_Spring_Cloud.svg;" parent="1" vertex="1">
          <mxGeometry x="160" y="239.7" width="68" height="68" as="geometry" />
        </mxCell>
        <mxCell id="o-1FiU2Sk1T6LIwUC7L5-5" value="" style="points=[[0,0.5,0],[0.24,0,0],[0.5,0.28,0],[0.995,0.475,0],[0.5,0.72,0],[0.24,1,0]];verticalLabelPosition=bottom;sketch=0;html=1;verticalAlign=top;aspect=fixed;align=center;pointerEvents=1;shape=mxgraph.cisco19.key;fillColor=#005073;strokeColor=none;" parent="1" vertex="1">
          <mxGeometry x="344.44" y="70" width="111.11" height="50" as="geometry" />
        </mxCell>
        <mxCell id="o-1FiU2Sk1T6LIwUC7L5-6" value="" style="verticalLabelPosition=bottom;verticalAlign=top;html=1;shape=mxgraph.basic.frame;dx=10;whiteSpace=wrap;fillColor=#dae8fc;strokeColor=#6c8ebf;" parent="1" vertex="1">
          <mxGeometry x="150" y="40" width="500" height="110" as="geometry" />
        </mxCell>
        <mxCell id="o-1FiU2Sk1T6LIwUC7L5-7" value="" style="endArrow=classic;html=1;rounded=0;entryX=0.078;entryY=0.955;entryDx=0;entryDy=0;entryPerimeter=0;" parent="1" target="o-1FiU2Sk1T6LIwUC7L5-6" edge="1">
          <mxGeometry width="50" height="50" relative="1" as="geometry">
            <mxPoint x="190" y="239.7" as="sourcePoint" />
            <mxPoint x="189" y="140" as="targetPoint" />
          </mxGeometry>
        </mxCell>
        <mxCell id="o-1FiU2Sk1T6LIwUC7L5-8" value="" style="endArrow=classic;html=1;rounded=0;" parent="1" edge="1">
          <mxGeometry width="50" height="50" relative="1" as="geometry">
            <mxPoint x="210" y="153" as="sourcePoint" />
            <mxPoint x="204" y="240" as="targetPoint" />
          </mxGeometry>
        </mxCell>
        <mxCell id="o-1FiU2Sk1T6LIwUC7L5-17" value="JWT" style="text;strokeColor=none;align=center;fillColor=none;html=1;verticalAlign=middle;whiteSpace=wrap;rounded=0;" parent="1" vertex="1">
          <mxGeometry x="140" y="180" width="60" height="30" as="geometry" />
        </mxCell>
        <mxCell id="JA31p7DvZpfoLUHz7BA6-1" value="" style="outlineConnect=0;dashed=0;verticalLabelPosition=bottom;verticalAlign=top;align=center;html=1;shape=mxgraph.aws3.elasticsearch_service;fillColor=#F58534;gradientColor=none;" vertex="1" parent="1">
          <mxGeometry x="827" y="190" width="67.5" height="81" as="geometry" />
        </mxCell>
        <mxCell id="JA31p7DvZpfoLUHz7BA6-2" value="" style="rounded=1;whiteSpace=wrap;html=1;strokeWidth=2;fillWeight=4;hachureGap=8;hachureAngle=45;fillColor=#ffe6cc;sketch=1;strokeColor=#d79b00;" vertex="1" parent="1">
          <mxGeometry x="740" y="150" width="60" height="180" as="geometry" />
        </mxCell>
        <mxCell id="JA31p7DvZpfoLUHz7BA6-3" value="" style="rounded=1;whiteSpace=wrap;html=1;strokeWidth=2;fillWeight=4;hachureGap=8;hachureAngle=45;fillColor=#ffe6cc;sketch=1;strokeColor=#d79b00;" vertex="1" parent="1">
          <mxGeometry x="930" y="140.5" width="60" height="180" as="geometry" />
        </mxCell>
        <mxCell id="JA31p7DvZpfoLUHz7BA6-4" value="" style="shape=ext;double=1;rounded=1;whiteSpace=wrap;html=1;dashed=1;strokeWidth=2;" vertex="1" parent="1">
          <mxGeometry x="430" y="180" width="260" height="151.3" as="geometry" />
        </mxCell>
        <mxCell id="JA31p7DvZpfoLUHz7BA6-5" value="" style="dashed=0;outlineConnect=0;html=1;align=center;labelPosition=center;verticalLabelPosition=bottom;verticalAlign=top;shape=mxgraph.weblogos.github" vertex="1" parent="1">
          <mxGeometry x="740" y="-100" width="75" height="75" as="geometry" />
        </mxCell>
        <mxCell id="JA31p7DvZpfoLUHz7BA6-6" value="" style="shape=actor;whiteSpace=wrap;html=1;" vertex="1" parent="1">
          <mxGeometry x="750" y="-180" width="40" height="60" as="geometry" />
        </mxCell>
        <mxCell id="JA31p7DvZpfoLUHz7BA6-7" value="" style="shape=image;verticalLabelPosition=bottom;labelBackgroundColor=default;verticalAlign=top;aspect=fixed;imageAspect=0;image=data:image/png,iVBORw0KGgoAAAANSUhEUgAAAIwAAACbCAYAAACwE3MdAAAAAXNSR0IArs4c6QAAAARnQU1BAACxjwv8YQUAAAAJcEhZcwAADsMAAA7DAcdvqGQAACTTSURBVHhe7Z15sBXVtcb3vUiYlMmRQWSUQQQVUVRAMT7FgSgyOIHPl6AxMalYKV9p1csfr1LPqqem6lkaY17K5EURE1FREBAQEXEgAioiiAgIyigi83hBef1b566Tvn27d+8+p+8558L5qppzOad79d57fXvttVevvbti9+7dR77//nvDEYYmTZqYRo0aVf8vGnv37jVHjhwx3333nXyGoWnTpuYHP/hB9f+isWfPHvm0yTr++OPNcccdV/2/aOzatctUVlZaZTVv3lzOicOOHTtMgwYNRFYUWrZsWf1XNCiHv1xhqKioMC1atKj+XzS4nrYHUTqkzCeccEL1/6Jx6NAhc+DAASlflKzKw4cPS8FdGiwOyKJwVDZflKosFISsfKFKSUOWKjcNHVI/2ilKlnxbJk0yHMukyX5TJk0yHKukqfG/MmmS4VgkTS2pZdIkw7FGmlCJZdIkw7FEmkhpSppSVXQaKJPGHUqaij179oQHJ6rRsGFDpwal8bWAUUhTlks8BxBbQAk2IItz4spWVVVV/Vc4uF5l2cDvlMsGlOwSZ3KVRdvHlYs2p+1tqPCEWKXs379f2IUwmxJdgnIuwT3gEpRzCe4Bl6CcBtHiGsslKOcS3INYcUE56hQX3APcKy4ox/W0Pfe1yYJUzZo1q/5fOJxsFQ1JweMa3gXISmsYSFuWS492AUpJQxakoZOmNTwhL19ZzgwokyYZ0pJVaqRJpP36TBoayn8ogn+rooPf+w9XHI2kSaz5+kKaMOVqwzNk4Cju27fP7Ny503z77bdmy5Yt5uuvN3vH13Iw5vM753G+NrQfYfcI4mgjjZPTe/Dgwer//RM0AjfmAK5Ob5hHjyyUokVxdXpRhkKvhch8T5lROATatWtnNSG+ls9t27Z7RNkh5eHpLOf6m4FrjjuuoWncuLFp0qSxOM4tW7Yy7du3M6eccqp3nGJat24tDiJlpd7aiSAgsoKdgPpoefnNxelFVhBci6JVFn+7OL27d++u/t8/QXmRx+/AxenNmTDAT5p8CAP8pHElDLK4N5+UkxnK5s2bhBhfffWV9/dm880333gE2Vbjsb2SPKbqWaXzUVGRaVwOiARh2rRpY9q2bWtOP72DadeunUeo9qJAUkKURCoDKGn4LlfCAK5X0uRDGOAnTZ0TBihpaMR8CAOUNBTaRhgaimFk69ZvxGJ8+eWXZvXq1Wb9+vXed1uFOBBElRVHjFyBfGRTd6bcJ598ijnttNNMly5dTMeOHc2pp54q3/O71kfrmA9hgJKG8/IhDFDS8BlLmKqqKmtrcjMOG7gRhVcFRQFFa++OQpgsGoUD4kKUdevWmRUrVnjHZ2bt2rVCEn5TM10MKHkoOwQ58cQThTTdup0pBOrQoYM56aST5DfOpTfbgCxb5wKqZO5pg6ss5CDPhgqPxZJxFwXXjDsskQ4RUXDNuFNnk4oiD8sEST7/fIVZvvwzz6KszTqmnFOqQAn0WCwNpDnrrN7ecZY544wzqs+IBte6ZtzRXrZODRGSZNzZZKWeommT5UIYZGgUd/v2bWblylXmo48+8ojyqdm4caOYaSxJKRMlDFiUFi2ae75O+yxxunfvLv4aCqU+kESRhDC0PedHKTopYUCUrIrt27cfUT8kTNFJCMMNbbLiCKONhqP68ccfmwULFnifiz1rssWzYPsiiVifgMmnTfF3evfubQYMGCDkUd9BSZOEMPgnyI0iTRLCoEfOB2GyhDD8EaXopIQBUbLiCIMf8vnnn5uXX54kVkV9k/pmTVyAcmkL/JpzzjnHXHHFv5gzzzxTvqO+ECAJYUAUaZISBkSRJksYEKboXAgDwmSFEYbG4cBHee2118yMGa/JdDiM3UcrUDTEGTJkiLnqqqEyRVfCqMWJgp8wIIw0uRAGhJGmBmFAUNG5EgYEZQUJQ0EIqv3jH/8wU6a8aj755BPPomTG0GMNKJmje/ce5uqrrzYXX3xxNq5jQ5AwIEiaXAkDgqSpRRjgV3Q+hAF+WUoYLAqzqpUrV5qZM2eYefPe8vyWrVliHcuorMR3aWkuvPBCc8MNNwiBaDdIEIYwwgA/afIhDPCTJpQwQBUNWfIhDFBZGsAiljJ//nwzbdpUs3TpMlNVFR0YPFZBx+rRQ63NJfI4grYLIoowQEkD8iEMUNJEEgZQQKaD+RIGIIubrlu33vNTppvZs2ebLVu+9ipctipRaNCgUmZTl156qUeca0y3bt1q+YA2wgBIQ7vHRXCBjTAAORX79u2LJAxQZsXNVNR5jQLBpU8+WSK+ykcffZiNtZQRD2I1ffr0MdddN8z0799f3AQ/4oZytTT56hA4PUvSQJmtYFFTZq4j2DZnzhyZLvPMx2aJyggHFrpDhzNkiLr88svlCTqgQ8cNN1ghLAfEsT0+cXn46JTUIs6Ox1BumASQhVjKpEmTzIQJz4qTWyZLbkDRa9euMc8//3fz4osvSrsmAZ2dI8wPSgJnBiQlDWThec/EiRPNSy+9KE+SkVFG7kDhTBimT59m/v73v5lNmzbFDiF+pEGaRCbDlTQUiuDbM8884/WGFyQFge/KyB86xM+cOdM8/fTT0hGTtG2+pEk2xniIIw2Fgfnjx483U6e+WnZu6wg8JHzvvXdlqP/iiy8SpXbkQ5rEhAFRpNFh6LnnnhOzicNcRt2B9n3nnXfM3/72nKR8FII0OREGBEmjDi5kwbLY5vNlpAfCFcS08BU3bKj74SlnwgA/acibfeGFiR5ZpkolyigclDQvvTRJOm1dOsIV3lholc7NbQXgNyKNU6ZM9gr8knjxZRQH5A/feOONZuTIURKboTMr4iwP5/rPj0LFrl27jmApomB7+AhZYPeMGTO8GdHTiad5ZaQPcolvueUWc+WVV2Ujwi7BPYAPhF9k44MMSRr+TwoEL1q00LzyyssyjS6TpfjANXjxxZfMggXvWxUfBvTHYeNDpQpNShpMHGH+yZMne9O61bEmr4zCAIUzUyW6vmrVysSdGD3aSCMWJilpEIivMm3aNPPhhx+aqqpyuL+UcOSIduYpkh+dFDbSZGdJSUij8/8335xTnj6XKMiFXrhwQc46iiJNjWm1C2lwjFgfRO5tLuwto3BgQ6K3335bUl9zeegbRppacRgbabh4+/btZtasmWbZsmWJnapShcaSqDOfLtPL+gAUvmbNWs/KvClrutBfUgRJE5lxpyeQ46LTalg6a9Ys8+STfxDHqj5BSUGAipwPkpL4pH76SZ3JADx0qEpMOs9rCBsQZ+Kg/jQejVifcPLJJ5vbb/9Xc91110m9o0D9ooYv7UjWFE0a0E+YNWvWmEceecR88MGietNoJAURgyDVke06TjutjTQgQS6+pwFJRuI8GgWH8fDh72QDRHw1zPqOHdtlMR35KBs2bJCn73yvBCp1oMe+ffuan//8Hlk8p8YgCBthgJAmLtILqxh6aMDx45+RZxal/lCRMmM12IajV6+epkePnt7fp8sWHZCETkDlaTgdfoKK5/9qTTio/759e73Z4TZ5ZvPZZ5/JQSfiiXypE4cg3g03DDe33nqrdBCttx9iQUK+9yM2RROTjKNL4zz44H/JWFiqoLJYjJ49e5oBAy6Stcssguc7LEhUg+hulXFPe1lYRnNxHj2RJPbly5ebefPeNkuWLPbk7C5p4tCBfvGLX8hKS+obhEuKphNhaNA//vGP5rXXppfsUEROca9evcwVV1xh+vTpK0MO/gpKDmscP6gf9eJ8G2mQ6YeSB/+GNeCvvjpFlvju3buvJIlDO5ATfNddPxWLE+w8LoRp8J8eqv8OBQ3ywQcfSJplKSZDoWS2zxgxYqS56aabZYyGPDrc4H+FWRU/dP22kiaqU7Cuyg/kogQav2PHTpLR36zZCTJs7dy5y5NZWp2LOjLLxfKyc1YQ6rPaEEsYIrovv/yyzOVLybqgrFatWskirzFjxpjBgweLf0Kj+AmShDDARpogYQCyVX6TJk1lXTTrh/iO7UqYaZWStcn4n0dMv37n1/DhgAthrLaaRmM3BcxtKcVcUCj7rPAYf9y4cebss8+Wnk6F44YfF2BVuUcSKHEw66xYvP32283o0aNN586dY5VQSEDehQsXiU9KHZOSObJ1EcQQxFPPpEk5dQl6OU4bRCGuwON8BYoO9ppckQtpFNyfGRk7MYwZM1amtKVEGnw2fWQAwZPAShimjEuXLhWTXQrAIWNXA5y2gQMHiq8SRKmQBlA+FtWPHTvWXHTRRdn8lGKDkYMNmxg9dAh2RSRhGHvxW0iKChvPCw3IcsklA6XHMgRBiiiUEmm4lh0YbrvtNjNo0KCSIQ2jxuLFH8ksOAlpItdWs8/tU089Zd599x2JABYTDEP00NGjb5JdmmwxFT/4HUsZR3hXvwdZcUNzlCzKwI6fEyZMMHPnzvWsdnH3waGcDJX33ffvMsvUtozzVRvcf//9/wkhOFEPhiCsy9y5b8o0rJiA+b17n+05uCOzsw/KCInwC/g96sDKUBfqh6Xw19F/MHRAwjAZ/gOrixybLIKEYdciH7+GTYJ4DkcAtJiWG+JTXraFpV0pH+WhrYJ88B/SHYLmnYYhAYf0hbgeVZeAHMyGcG6J3tLwSSGV9HpTnDVyAUTJZxZGO3ft2lVmT3ymUaZ8oAFH9K2IG55qpWhCEPJCV69eJeNbMUFkdejQoaZfv36JvXk/0iQNsoIdLAm4Fh+MiCv79xaTNDwfwzDgfqhhgDA20kh38ZOGk3F02aSwmNaFgNv55/c3P/zhD2PD1S4oFdJwf4bT/v0vkKBjGnXLFeia4ZGltvytsJEma1+VNJhdll1iZYoJxvqrrx4qVgZF5zMUKEqJNPgzRKfxH3IZatMCwxJJ/Hz6EUWaGlqALATreNlDMWMvTD0z+9Z2l8ZFOXyWImlyVTZl4En6oEGD5RFHGuXJBfgvzN7CDEQYaWppgFnRxo2bhDzFAA3HztiDBg3MJm6BuiANn0Q7eV7GuipmLrxkixgFPU7bwDY0c06upGFoOv/888Whz8cvygeUn7pn9husPaUOkqbBAw88kH34SMMwps2f/17RhiQeIPIwkVQF4O95lE+tA06wC3n8Dxb1EyuKs8eee++//77Ul3gTn2xXv2TJErNq1SrJrDt4sEosHlP4KKurDconJHCBlosp/fffHzHLli0tWmIaZGXW1qlTp2wb+aHfcV6NFE1+wOH961//T5aRFDpgR4EGD77U/PKXv5R4RpSZ5jyU6NKzNdeFumFNeOgGKVau/FwIgUlmtkBP4xzuiVwIwj3Y7pR0gIEDB8krbGzl4jp+jwP38b8LifDFE088Ifu9qHIKCUg+atQoc+utt1nbVDqrx/QaJYQkzM2ff36iZJMVKiKJgnjKS6HPPffcWOuhpjKugbXn45exNObdd98VK0oP5/s4UA7KxtbuZPFde+218gQ6rGEhEu0XVyYlpYJysG3+o4/+T1FCGdSRrV3vvPMu6RRRHQKEZtzR27A0OEO83ey77xjLK6wNjL9hYyegN2duR7i+5m3pzZhEErTJkouTpclclCmqXNyLaSsPUNksgEQw/xCVBDQidSRBi9QF8kkgUhC0F2VX/ycMyAq+eIL2vu+++2TNV6FBeYgN/exnPzfnnXeetbM6v8JPzJEnOMwxAozFYQ3oB0MCPZAhhdtGKVrD6zZAGHU4w0ij8hl6nnzySRmKou6XBJSd51l33PFv8uQ86LNAGGAjTZAwWtbf//5x2eyQVQuFBmEMXIFLL71M6hgF5ykHFaJiNmGuSHPGg1KUzH5Q1k8//VRykdMiC6DspAWwgmLRokXi/4RByewK6kAgr2nT4gTy6IC8bTfKICgSaayUSUOZlDSUkUg126fhh6VFFgVlh4QTJz4vOUNR8l1JQ7k5GJLjfIi6Apaf9Vd0ANovCom1VeqkAQx9bHJEvkfaZFFwP3yi6dOni6Ma1ciupOF61guxhqoYwE9lOI2bGeekqVInDb2fKSr/r0vQG0kBWbr0E6tVcCEN1xNb6ty5U6wvWBfAb2KqzzJhW11y1lKpkoZINS/sIlpbCDBFf+ONN7Kztii4kqZNm7a11j8VAuiAOhw6ZO9keWmoFEmzfv06z9ldFmta0wLlXrhwoaQIxMGFNCS1QxhLJ68ToMd9+zKvkrahwmOVdVoNGeKUiKIhT9wQQGPZzB3gd+TE+R5hsriOXbH+/Oen5PlQoUAb3Xvvvebaa6+T4cRWR37jIFQRhk2bNpqHHnrI878WV39TOBBj+tWv7rUmd1WiGFgVdXAhjWA7NL2vkLJQUvBaHLeNGzfUyCArBOidzMZwtoNlCh7Uj7JzTVi9jjuuYdGm1nQ4/DKOsLJxVKY1pKDgtGQhBySVdeDAQXk+RMUKCcpLpJYGj+qZQXBu2PDEd02b1l73XAhk9sbJvHs8CmJhSpE0+AYgiSx6Bo6bXlsoUGdmGEmfu4WRRq1wMQhDPWg7jijSiHNSyqRJIovz6SFcU2hkTHbyaTykCdYvjdliroCoSpww0mRLVqqkSSKLhk7jnrmAxs313kHlFIPwQUSRpgaV6ztpMOU8nS4GaXhg6s8QTAodnqhnsaxkcBSkDEHS1LJ99Zk0KIy8FWYihQSW7dRTT8v7vpDGU5PEQ4rAl1ALHSRN6GBZX0lDTk379qfn1dNzhb5TmvLlA8jCXnoQp9CAFJA+6HD7SRPpXaly0vDWCyULhZENV+gsfHJbCHalMbvZs2e3PMwsZPkVjRpllh+H3VtJU+GNl1YqcxIHirJBA1I2MDarwm2g0HEzhShZPEv6wx+eMG+99ZacU9egcS+77DJz//0PCHFcMvq4JsoKkm/88MMPyQqGODlpg3ycX//617KLVhQqMTO2A6UwtlJ4PqMOGiHsev+BLFVymAw9IEvY9f7DT2T/tTifF1xwgfcZ/36gNABJWEPFMyA6jDqs/jKFHWF14vqtW7+RFRuFJgv3P/74ZpJBGCyX/7B342qoktPwQ1AySEMW5QJ+awRxzzuvnySSp3EPGwjjX3jhANmKBKgpp45J7037ch1bvRf60QagvM2bt5CRwkZWJ8KA+kQaEpGGDRsmGWxxQ1uuoOzdunU1w4ffIFYt2Mi5kIbFcytWfFb9v8KCsrZsmSGMDYlasy5Ik4ZCg6Shp7OWiG016iLlkfsgd8SIEaEL7hRJSMP1+C2kfNp6eF0BopBWEee4R2qLQocVPG3SUDgUEHU/VwRJQwNcdNHFss6JmVMa5QXIYcemG28cIYvuGje2Pyh0IQ315jw2oPQvcCskWPXRqlVr8VNsCF1mQuHJJ+E1/Zq2F0RGMeTBZCwFU7KGDe03Y2zG4QuisrKBOFtsNgzLGVLiCs5DxnBZGcL4ic0qzkmTXpJVBPnMnCAh8Rb27Gfhl+4s4YcuMwmCctCuAIIF1yWRIfib3/yHvOEun46TCygPiwh5eQUThmCd/KhFGCpFTiyvFOazqspt4Rc3tfU0oFYgDCiD3QyGD79RtlXNlTAA5VBm7sdabaa6ZOGRsD1//nyZhdjKEgT1wiFkR8xhw64zZ53VW/yWsPpGEQYoabguSJg5c94wDz74oCztLTQgiO5OCnFseqxFGHJU2Qxx5swZBfXWKSQNyrsC2KgPRdsKbiMMQJYShgbhXJRJD+aFU6woyGw4wFCYGRYUel8+IUafPn1keBsyZIgEBZEdVTYbYYCWy08YrPijjz5qpk2bWnDrAuisw4b9SFZ02mIwoMLzzLMlpCJYFQrPisFCAyWg4N/+9remb99zpPGiFOMS3ONarIvfmiCT2QibJvFWOYYptrugZzNcMawyJLZt28707NlLlpB27drFU3BLWQVqKxNw2b2B6/2yyAl+5JGHi/ZKRDY3Yi/hH/3o+vg2hTDaU2lYVvWxZHPFisKv8QU0IM4kObI8eY5SDj0/btgCWCLq5SeNgpROcliIumJNIQwyeSaF4ul5/F8VC6n4myMKLhn/XK8WEuuCRZ8zZ06or1gIdOnSWfwXtlFjyLRZbtkUURsedlFhtriIY1pdgcb88MMPJERuU4wrlChh9cHZhiwMD23atJGpMo43ww6EYfgASlpk8XcUiZNAHWB25GafmsOHC5tWqqCOvK2ON9XBAz8fwiA5vXoSf9OrmYa6mNa6Ar2P7S9YupGGcqJIY1N+1G9pkYa2ZneMefPmyQwpjc6RC+gwhAn0nQ1+PoRBWlBPwgRDFAQEvfhCgvIQ8Zw9e7aY7HyVA2yWJinyJQ31Y3hjxsaqSXKRiwWGdgwEfpvCRpps6+lJEAazjLechqJyBT6FbiOm243ki7ogTVLQzhCEoQjrEjerqkvQDrgfXbp0rUWOKNLUaDlOoiHIHuvUqbjDEmVh9jJr1uvZd2SXImmSyuEa9s97/fXXvSH3y2x5igFGlI4dO8oLVMMQRppateUkiMKzGKZbxQTeOtN73jW5Zs0XUjZ1RPNBsUhD+VnZ+MorvOFuSV5R5zTA4wDCBgxHUdYySJrQmvIjfgxvIQ2apEKDeAU7XU6ZMkX2fEFB9ZE0NDyBwokTJ4p1YZVkMQFBmBny4o84HftJE1lL9prjuQnvMSw2SFnklTGTJ0+WSDSFT8O/UtKkJctGGmZ+zz03wbMur0h9ig2UTwQ77GWhYVDSVHj/hM7nOIGe/fjjj8uLKvh/scGU/5prrjU333yzDJeUKa5ctuCfQjcEipPFjCIOWA6/HIhEFh3P5tgooFh78QZx0kknS3BUk78AJIrzW71OkdnHP3hg9tmhukeP7hKGLwWgjKlTp5q//OXP4tsw20A5KCXqgCxh9fMfnKeECV7vP8KuDR5q/fhkdrdy5Uozfvx4GVJLhSyUr1cvdNujRv2of1idahzVMkKBM8S7mIl8lgr2798n8Rk2O3zvvfdSyx+hwWjIOGvkApxZrBbPiJ59drwMp8WMtQTRrFlT2ajaH3txhZUwWBmcomLuhR8Gei5voH/66b9KzyVianv+4Yp8SUMPhSw45ww/EyY8K6QpBZ9FQd1IzyDnOZd6xr7oHKJUVR2SiGSpmFQF0VJ2+GarjYqKSukxjRqRYvjPfkDoO65hICDKBmqWw2Ab37mOJS5Eb0lTeOutuZJymQaR0wTPCkldhTRaZwW6jnM/YgnDWIyz9+WXX0mgqdRARJgAH8GwzZs3SaVxdFEuRNEcVRtp/IQBSppgg/oJw2/I5JN0Cbbbx7ElZkSKiD7ZLiVQJ1wMcl+IweDkYlUVLoSJ3Qkcc0qDssXoww//t9eLihfKtgHlYU1YW80wesEF/eWTKKbGGVTJQaBcf8MpaGD/9zxfU5LwPWF9XqbKjp20D/ksELjUiKIgVHLPPffIOxMgB3XhU60gkV86mw1OW8fTCJDmT3/6Xxmbwxq3VKCNwPBEugKph+SpkhCFpaRRFEogJYz+X8H/kaX15XriKQyBixYtNAsWLJSQA0MRljimKYsK6nHllVeZO+64o8ZSYj9pUiMMZAFMEX/3u0fkHYH1BVgXyEO+MC/u6ty5i0Q4eZzP9yRLMaT4m4G/Oag3BIEQvHhr06bN3nCzXIY/ds2mkUuYI1lAio4dO5m77/6pZDJCED+UNHzGEsabllqrjJmHeTQgM4AXXpgo71PatavmOwJLHTQGB34IPeyEE5p7FqOZpF62aNG8euzODDfUk5jPrl07hTA7duz0SLMtG873k6s+gI4xcuQocXZxemmHIPiODhA3samRohkGeiCkATQU5vixxx4z8+YVZrF7XYDGUaUrkfwzIx2e/OfUN5Io6Oy8JpAUTB4oU5cooE+sqo0PlfyoTqELcJyuueaaOl2GWtfwK5+/IQjtoIcSRlFfyQI5GH7ZXYI0BhtZFHF8EI27koYbch4PrVgOUkoR4DJqgxUYzIjYnEBHCRfY+JA1EUlIw5jIi5gGDBggQ1YZpQeGInJddC2Vi3XxI4oPNcYUV9IwFBHfYKt0HmAFve4yigvIQRiBJ/sMRbm6DmF8qCXJlTQwmL3piRqSU5GUwWXUHRgBhg8fLq5Dvp05yIdQ6rmShikqDhVMppBlFB/4Krz5Fr0QU0mjI/v5EGmrXEhDYXCsRo4cIT5NEseqjHSBLrD66GHUqNHyrIjoc1rugvLBOrhxkgtatmxlbrnlFtndoFSSrY41QBYegYwZc1uNzEBN6EoD8CH20QDPkTgxjjzMljZs2GAef/wxWeZaSglDRzuw7LxHe9y4cbIjFk6unySQhofIfNoA6eIeDcS6z/DJxbRRQDzycePuFEtTHp4KA9qZOMuYMWMkkhskiyKt4SmWMMCVNBSWl4CPHXu7BIxsCUdl5A/IwuZLJMUTc8FC2IafNEjjRBiFyw1xjHgqPHbsGDNw4EBxvspIF5AiQ5Zz5aEi6Zb830YWRb6kSUQYEHdDCo3jy2Y8Y8aMNUOGXF7DCSsjf9C+7OVy0003eZaldza70BX5kCYxYQA3jJtyUynG1B//+McSEc4lPF1GbUAOwv0kQpGc37Bhbu83yJU0OREG6LzcBn7nEQKkYZwt5hYiRwOw1GwaeffdP5NsQhSeTyfMhTQ5Ewa4kIYKsUpx9OibzZ133iXbiMRdU0ZN0F48fvnJT8ZJx2PqGzUbSoqkpEmUohkFKoTThZduA7mzrCdiz9wlSz42e/dmlqiWEQ4IATlYEnL99debvn371giMQhqOOB8RUpCGagOkQVZsiub27dutGvNn3NlAYCguWKeyWHg2deqrkrW3YcPGcpAvBHQ+kp+YafKsjpzksCGIZC86og1cxyOcODBikJJqQ6IUTRt0EbpNFlNstUIkUb///gIze/brnrVZIkteNTv/WAaE4NU9rGkfOvRqyTli6Qy9PwxYj7gorithXFI0xcIwpESdlIQw3NAmC8KoSYVcFA5r8/bb82T7Ll7MEDf8Hc2g7Zgk8EqdSy65RIaguCmzDjeQIoo0SQiDHm06zA5JUSclJQyIkuUnjAKrwoKw5cuXm7lz35TnUCSae5TySJU552gH1oOJwbnnnmcGDx4s0XLCEC4psH7/JIo0SQkDonRYw4cJOykXwoAwWWGEATqUsf6HlYQsN128eLGMzUezU4zlINSAU8vLLkhIgyQoGBK5hCH8hAFhpMmFMCBMh7Wc3uBJuRIGBGVFEUahxNm4cYNZuHCROMUQiDH6aPJvdPZDNByLwvMgVmNAEh1+lExxCBIGBEmTK2FAUFboLMmv6HwIA/yy4gijwFNHFo4whGF/lWXLlsrQFew99QXwgF0lWDSXednFJfIMCFKgFABhtGPkQxjgV3Q+hAF+HYYSBuhJ+RIGqKwkhOF8HY5oEHZEYD0z+9tu2bLF7N9/wGvc0l7PjNJRFu2HBenXr5+8uZUnywq1KAolTb6EAUqafAkDVIeRhAGcxDQ4X8IAZCEnLrgHlDAAQtB4fBJExCHmDSRYnvXr15lvv93mDVmZe5eC9UHhdAo6R+vWJ5oOHU4XS0LOSrt2bb3vM4Ex285ZyAAuedI2wgDIQvu5PAC2EQagwwrPzFu7KBbGRcko00YYwLhNBeKAz6KECQLiqNlmSs7bV774YrXsX8PmgzjKVJpz/OfWBVAEBwqGIKzXPuWUk2W7Wt4QwmyHDbJRPI2toExxATLaKS7qCiCMTcmAeyMrzhqjv9i11Z4QqxQEUCgO26kuww0VQ0YUGRT0Bn8DB4EMJQVRYhbNb936rWwsRJoomyfzCkJ8HgikZKYO3FvJlAQokIPOQ9noSAwZTIcZbtq1a+8Rpb1HjhYSaAuSBGIp+DtuuKF8GsG1lZUyxQ03Sirk2GRRt9hHA56AWMIQTKPyNtK4EgbFIctGmjjCAB22aDDKBfi/9hJMPtN0CLVtW4Y8bIa0e/cuuZZz+I1rucZfr4zl4GXrDbyjoUeOxjKUsEVIq1YtJeld/2bYad26lXdOJoqNbLU8UW3lShjqgPXi7yhZroRh2IqTlSphgI00SQgDbKRJQhjgJw3Q8vFJY/IuooMHq6QevMMSohw4kPnkpVb05MOHM/VCFuD+vJ2NfJPGjRsJcbAc+GF6KDE4FBBTgYLChsQkhAE2RSchDLDJSp0wIIo0SQkDokiTlDAgSBoFQwONFIQ2GgeK8V+LLL4PEoK9VfT7KPgJA8JIk5QwIErRSQkDomS5ECZxPgxKopC2RnMFsuKI4QoahXK5gvLTcFyTsSYNswff62ewnknrDVmQky+Qw73TaPd8ZOVUk6OFNDakpWiQNmmKScCc75w2adKSdSyQBqQlCzlJ2j2vu6at6KSFj0KZNO5I2u7yklDbARAWdahy+Dvsev8RvDZ40BCq6LDr/UfY9f5DZYVdGzzCrvcfnEOjBq8LO7Txow7gUi7KH3a9HpzDp2u5gtf7D20rF1kS6eWPKLg+SyI6G4xnBOEykwLB2VQYXGZSgNkBpLYhaiYVhIss1/dWx6VuoMi4mRRA2ZTLJgsyxM2kAG2OHm2yKhFG4fIFN0lTVlqOsJYrDaj5TgtpyKJ+ainSAGWyyZJdNNNSdNqySnX2lIYsFM2RBmkoU5yiXaGdIkqWlLZMmmRIy9KkSZo4RSeBTVa2pGXSJIP26nxRF6RJU1ZNHRrz//ZA63FohTWoAAAAAElFTkSuQmCC;" vertex="1" parent="1">
          <mxGeometry x="750" y="-10" width="72.26" height="80" as="geometry" />
        </mxCell>
        <mxCell id="JA31p7DvZpfoLUHz7BA6-8" value="" style="shape=image;html=1;verticalAlign=top;verticalLabelPosition=bottom;labelBackgroundColor=#ffffff;imageAspect=0;aspect=fixed;image=https://cdn1.iconfinder.com/data/icons/100-basic-for-user-interface/32/29-Screen-128.png" vertex="1" parent="1">
          <mxGeometry x="1030" y="-88" width="128" height="128" as="geometry" />
        </mxCell>
        <mxCell id="JA31p7DvZpfoLUHz7BA6-9" value="" style="shape=document;whiteSpace=wrap;html=1;boundedLbl=1;" vertex="1" parent="1">
          <mxGeometry x="590" y="270.5" width="80" height="50" as="geometry" />
        </mxCell>
        <mxCell id="JA31p7DvZpfoLUHz7BA6-10" value="" style="shape=cylinder3;whiteSpace=wrap;html=1;boundedLbl=1;backgroundOutline=1;size=15;direction=south;fillColor=#f5f5f5;gradientColor=#b3b3b3;strokeColor=#666666;" vertex="1" parent="1">
          <mxGeometry x="385.55" y="480" width="304.45" height="60" as="geometry" />
        </mxCell>
        <mxCell id="JA31p7DvZpfoLUHz7BA6-11" value="" style="shape=image;verticalLabelPosition=bottom;labelBackgroundColor=default;verticalAlign=top;aspect=fixed;imageAspect=0;image=data:image/png,iVBORw0KGgoAAAANSUhEUgAAAKQAAACrCAYAAADo4zeUAAAAAXNSR0IArs4c6QAAAARnQU1BAACxjwv8YQUAAAAJcEhZcwAADsMAAA7DAcdvqGQAAAkVSURBVHhe7d17jFxlGcfx31662+1tt5Rbay1tSTEC1dhLoi5EoUEjIYGIJtAaDUYTxBgT/jD+4S1R/zDRSOAPJZgGElGwKiFiQqAk2Baoi0UtljaFQEtomxZ62S577c6uzzPnNNGms92dznv67Mz3k7zpzrvd3TMzv/O87zlzLk3jRkAQzfm/QAgEEqEQSIRCIBEKgUQoBBKhEEiEQiARCoFEKAQSoRBIhEIgEQqBRCgEEqEQSIQy+eMhRwelQ3uknl9I7wxLpby/GjOsLVkhffIuacEyWy1as/4ijI1K7+2Tdv1V2vsPqX8o/0YVfLEXLpZW3iwt+4TUPifrR9UmF8iTh6WXn5S2PiTte0UaGZPO97DemfbmrVgtfepr0upb7fHc/BsJjVr4dm2Wnt0ovbFF6jthAT2PNavJ2owO6ZLLpRvuka5bL3UuzL+Bapw7kCN90qYfSs88Ig3aG9hiYazV611qkWYtkG75unT7T/LORMZtuf/1hLTxXunwIavKp2o3YbFfrebZ0k13S3f+wFaueVk/pmzit6RkQ/Pffis995g0dMyGqBqG0bVYdeo/Iv35N1Z9f513JnLQphsPWBgPvm1VrYZhdOXf1S89atOZZx8ud6E6E7wtVjgP7pZ2WFUZtIpixSwJ/71jvdI//y4dfyfrqzl7LtttpTpgYWzPHiZxkbVHvi0N26iCqlQO5OiItN8m/ft3pHsDXbni2tzuyF7pmAU/xR8r2XPZZhXYtzlSTu98I+e4tbdeKj/E1FUOZMmG56NHpV4bqms5vFUy9L70vv09n+vVWpOV4dffzapxypXLzbR2wDb8UJUiojZJnpREafHdSgXuWdLYeexKanBxAtlki9IcaP3ABUECEAqBRCgEEqEQSIRCIBEKgUQocQLZ5B+hpPwYBdNBrEA2p/rAHNMFQzZCiRHIhJ8aYnqJUyEJJAxDNkIhkAiFQCKUOIH03T7lfZFoZFRIhEIgEQqBRCgEEqEECqQvCutHo4uVADayGx4lCaEQSIRCIBEKgUQoBBKhxAkkqwZMjBj47p7ywRWkstHFSQBH+8DEKkl+HUdvaFiMkQiFQCKUGIHkNFjk4lRIAgnDkI1QYgWS3T4NL04gmwkjogTSs0geYZhDIpQYgfQt7AQ38ML0Q4VEKHHmkKwaMIGG7IR7xsdLTAmmiTh1aWhA6u+18CRITu8hadD+LeLZ+sFKffZcUJU4gTy2T3qzRxpJcCfVFzZlz7SII9v8BvG7XlX5VsuYshiB9KXw+2Vv/pX08mPSqRqF0u/sv+1R6cn7pC57XMTn5X4b5NdelJ6630L5XtaHSWsaN/nX/2/Yxrin7UV9/Lt5RwFGrV22XLruK9I1a6X5i23uN5J970ylU9nc8GzG7Bf1WRh3bpG2/F46ecCCUkQac/6nWjqltZ+RujdI82Zbx3TY85+/Rq0d0oJlttyX2WIXe8B0rEA6z5hPI/3O/B0WzkpFfNwqqiyUZ1OyZR+0eZwH3CvWhciCv6q+eP63/bnEmRyd24z50iXXSutsZeq+w94HW7kKEi+Q/8uDefaly3C2QxqnVyafBn/hHmnD923KY9WygDU79nrrS+ehq9SQhueuzdrl1rbaHLznLxbQClOnGptOAwmK5sEs9Uo7Hrc5+eGsLzECiYn5HHzvc9IJAokIvEr6hwoVdmjUGoFEKAQSoRBIhEIgEQqBRCgEEqEQSIRCIBEKgUQoBBKhEEiEQiARCoFEKAQSoRBIhEIgEQqBRCgEEqEQSIRCIC8EP0+lmtYACGRRPFB+4QO/moZfumiqzX+uARDIIpTsZT7ZLvXNkTrmSkutLZ9C+6C1Vmu9s6WBNgt2/ZbL2JdSme7GLTitFqIla6QbvyStuUmac6kFdMS+N9E1Ys5Qvo+4tSN7pO1PS1s32de7rM/KZhHZ9Mr+4x5pxdrscUJUyFT8TWztktZ9VfrmgxbIu6TOJVLLTKltntTeOfnWZtWxzYK9eLV0uxWIu++TVl5vwa6/68kQyGQseKtuk26zAC26Kq9yNeCXx/vwp6X1P5M+1J2dxF9HCGQKJRtHr/iI9PlvSV0L884aW2rD5/ofZZXYW50gkCmMWhVbc6v0gavzjkSusgq56uPZVnidIJApdNjLeuW1Nof0C44n1GJb3N13Zl/XSZUkkLXmwZhjGzMLEg3VZ5p7sa0A+dd1gEDWmu/N8Q2PloK2gH23z4zsy3pAIFMZLeaKs/WGQCIUAolQCCRCIZAIhUAiFAKJUAgkQiGQCIVAIhQCWQ+mcPB5dASy1vyzZb/Hd6V7edfa6Tu31gkCWWv+ig71Sf1+P+8CDPZnx0MWcW5NAQhkCoNj0r7dUmk470hox+/yI4yyh9MdgUzChuueP0hH384fJ3Jwp7Tt+fLpO/WCQKbQYiXrjX9Lmx+URhOdhdX3rvTHn2cHBNfRyYcEMoXyho2f127D6VP3SwMnsv5aObxHevh70otPSLPzvjpBIFNptio5fEj60y+ljd+RXn9BGrENnfK8cor7acatDPrPDR2XXt0sPbBBev4hC35BG04F4soVqfmQ6rtlupZKS6+Wrlxic74u65jKVojNSU8ek97cbxtLNhUYOJKdtlDUhow/h4KuXEEgi+KvsgdzwFo1uyhbrc3K/y16i7rAQDJkF8VD1GZtvrWLq2id1oqsihcIgSyaV8pqWoMgkAiFQCIUAolQCCRCIZAIhUAiFAKJUAgkQiGQCIVAIhQCiVAIJEIhkAiFQCIUAolQCCRCIZAIhUAiFAKJUCoH0k8m8pOK/KoIDXROB87g772f6VjQ1TEqB9JvjXbpcmm+NT8NEo1p1NqiVdJcP10yvQkC2Sat6JY+9lmrlO1UyUbko6QXo1W3SJ2Lyl2pTTyH9IW44RvSwuulQfuvhLKx9NkoufJz0o1fltqKueVs5StXnOZXgt37krTpp9LunfYTfjUvklnfvPjMklavk754r7T4Gnvfi5lEnjuQp/ll5fZvl976j5VxJpV1rX2mdMVHLYjWWou9GffkAwkUYOI5JFAwAolQCCRCIZAIhUAiFAKJUAgkQiGQCIVAIhQCiVAIJEIhkAiFQCIUAolQCCQCkf4LbuIcPoADigoAAAAASUVORK5CYII=;" vertex="1" parent="1">
          <mxGeometry x="597.25" y="482.5" width="52.75" height="55" as="geometry" />
        </mxCell>
        <mxCell id="JA31p7DvZpfoLUHz7BA6-15" value="" style="image;sketch=0;aspect=fixed;html=1;points=[];align=center;fontSize=12;image=img/lib/mscae/Cache_Redis_Product.svg;" vertex="1" parent="1">
          <mxGeometry x="610" y="210" width="50" height="42" as="geometry" />
        </mxCell>
        <mxCell id="JA31p7DvZpfoLUHz7BA6-16" value="" style="shape=actor;whiteSpace=wrap;html=1;" vertex="1" parent="1">
          <mxGeometry x="1240" y="-140" width="40" height="60" as="geometry" />
        </mxCell>
      </root>
    </mxGraphModel>
  </diagram>
</mxfile>
